<svg width="51" height="51" viewBox="0 0 51 51" fill="none" xmlns="http://www.w3.org/2000/svg">
<path d="M44 6.95627C42.4722 5.42849 40.634 4.6653 38.4854 4.66669H12.4708C10.3208 4.66669 8.48263 5.42988 6.95624 6.95627C5.42846 8.48405 4.66527 10.3222 4.66666 12.4709V38.4854C4.66666 40.6354 5.42985 42.4736 6.95624 44C8.48402 45.5278 10.3222 46.291 12.4708 46.2896H18.5417C18.9375 46.2896 19.2354 46.2757 19.4354 46.2479C19.6683 46.2019 19.8786 46.0777 20.0312 45.8959C20.2299 45.6875 20.3292 45.3854 20.3292 44.9896L20.3146 43.1459C20.3062 41.9709 20.3021 41.0403 20.3021 40.3542L19.6771 40.4625C19.2812 40.5347 18.7805 40.5667 18.175 40.5584C17.5431 40.5463 16.9133 40.4829 16.2917 40.3688C15.6294 40.2486 15.006 39.9699 14.475 39.5563C13.9176 39.1348 13.5019 38.5534 13.2833 37.8896L13.0125 37.2646C12.7833 36.7721 12.4966 36.3084 12.1583 35.8834C11.7694 35.3778 11.3764 35.0347 10.9792 34.8542L10.7917 34.7188C10.6615 34.6245 10.5426 34.5154 10.4375 34.3938C10.3371 34.2808 10.2548 34.1529 10.1937 34.0146C10.1396 33.8868 10.1847 33.7827 10.3292 33.7021C10.4736 33.6188 10.7361 33.5778 11.1167 33.5792L11.6583 33.6625C12.0194 33.7334 12.466 33.9493 12.9979 34.3104C13.5355 34.677 13.9846 35.1588 14.3125 35.7209C14.7292 36.4597 15.2305 37.0243 15.8167 37.4146C16.4042 37.8035 16.9958 37.9979 17.5917 37.9979C18.1875 37.9979 18.7028 37.9528 19.1375 37.8625C19.5585 37.7753 19.9676 37.6382 20.3562 37.4542C20.5187 36.2445 20.9611 35.3139 21.6833 34.6625C20.7467 34.57 19.8184 34.407 18.9062 34.175C18.0161 33.9308 17.1601 33.576 16.3583 33.1188C15.5193 32.662 14.7781 32.0447 14.1771 31.3021C13.5993 30.5799 13.125 29.632 12.7542 28.4584C12.3847 27.2834 12.2 25.9278 12.2 24.3917C12.2 22.207 12.9132 20.3459 14.3396 18.8084C13.6729 17.1653 13.7361 15.3236 14.5292 13.2834C15.0542 13.1195 15.8312 13.241 16.8604 13.6479C17.8896 14.0549 18.6437 14.4021 19.1229 14.6896C19.6021 14.9813 19.9861 15.2257 20.275 15.4229C21.9685 14.9507 23.719 14.7138 25.4771 14.7188C27.266 14.7188 29.0007 14.9535 30.6812 15.4229L31.7104 14.7729C32.5021 14.2977 33.3371 13.8987 34.2042 13.5813C35.1611 13.2202 35.893 13.1209 36.4 13.2834C37.2125 15.325 37.284 17.1674 36.6146 18.8104C38.0424 20.3452 38.7562 22.2063 38.7562 24.3938C38.7562 25.9299 38.5708 27.2889 38.2 28.4709C37.8305 29.6542 37.3521 30.6028 36.7646 31.3167C36.1512 32.048 35.4073 32.6591 34.5708 33.1188C33.6958 33.6063 32.8465 33.9584 32.0229 34.175C31.1108 34.4077 30.1825 34.5714 29.2458 34.6646C30.1833 35.4771 30.6528 36.759 30.6542 38.5104V44.9896C30.6542 45.2952 30.6993 45.5431 30.7896 45.7334C30.8317 45.8247 30.8918 45.9066 30.9662 45.9743C31.0407 46.0419 31.128 46.0939 31.2229 46.1271C31.4215 46.1993 31.5979 46.2438 31.7521 46.2604C31.9062 46.2799 32.1271 46.2889 32.4146 46.2875H38.4854C40.6354 46.2875 42.4736 45.5243 44 43.9979C45.5264 42.4715 46.2896 40.6334 46.2896 38.4834V12.4709C46.2896 10.3209 45.5278 8.48266 44 6.95627Z" fill="white"/>
</svg>
