<svg width="51" height="51" viewBox="0 0 51 51" fill="none" xmlns="http://www.w3.org/2000/svg">
<path fill-rule="evenodd" clip-rule="evenodd" d="M9.875 3.625C8.2174 3.625 6.62769 4.28348 5.45558 5.45558C4.28348 6.62769 3.625 8.2174 3.625 9.875V41.125C3.625 42.7826 4.28348 44.3723 5.45558 45.5444C6.62769 46.7165 8.2174 47.375 9.875 47.375H41.125C42.7826 47.375 44.3723 46.7165 45.5444 45.5444C46.7165 44.3723 47.375 42.7826 47.375 41.125V9.875C47.375 8.2174 46.7165 6.62769 45.5444 5.45558C44.3723 4.28348 42.7826 3.625 41.125 3.625H9.875ZM13.3188 17.0531C14.3092 17.0531 15.259 16.6597 15.9594 15.9594C16.6597 15.259 17.0531 14.3092 17.0531 13.3188C17.0531 12.3283 16.6597 11.3785 15.9594 10.6781C15.259 9.97782 14.3092 9.58438 13.3188 9.58438C12.3283 9.58438 11.3785 9.97782 10.6781 10.6781C9.97782 11.3785 9.58438 12.3283 9.58438 13.3188C9.58438 14.3092 9.97782 15.259 10.6781 15.9594C11.3785 16.6597 12.3283 17.0531 13.3188 17.0531ZM16.4438 40.5406V19.9813H10.1937V40.5406H16.4438ZM20.5938 19.9813H26.8438V22.7344C27.7656 21.2906 29.7906 19.3469 33.5562 19.3469C38.05 19.3469 40.4906 22.325 40.4906 27.9906C40.4906 28.2625 40.5156 29.5031 40.5156 29.5031V40.5375H34.2656V29.5062C34.2656 27.9906 33.9469 25.0125 30.5781 25.0125C27.2062 25.0125 26.9219 28.7563 26.8438 31.2063V40.5375H20.5938V19.9813Z" fill="white"/>
</svg>
