<svg width="46" height="45" viewBox="0 0 46 45" fill="none" xmlns="http://www.w3.org/2000/svg">
<g clip-path="url(#clip0_43_39)">
<path d="M23 15C21.0109 15 19.1032 15.7902 17.6967 17.1967C16.2902 18.6032 15.5 20.5109 15.5 22.5C15.5 24.4891 16.2902 26.3968 17.6967 27.8033C19.1032 29.2098 21.0109 30 23 30C24.9891 30 26.8968 29.2098 28.3033 27.8033C29.7098 26.3968 30.5 24.4891 30.5 22.5C30.5 20.5109 29.7098 18.6032 28.3033 17.1967C26.8968 15.7902 24.9891 15 23 15Z" fill="white"/>
<path fill-rule="evenodd" clip-rule="evenodd" d="M14 0.5C10.4196 0.5 6.9858 1.92232 4.45406 4.45406C1.92232 6.9858 0.5 10.4196 0.5 14L0.5 32C0.5 35.5804 1.92232 39.0142 4.45406 41.5459C6.9858 44.0777 10.4196 45.5 14 45.5H32C35.5804 45.5 39.0142 44.0777 41.5459 41.5459C44.0777 39.0142 45.5 35.5804 45.5 32V14C45.5 10.4196 44.0777 6.9858 41.5459 4.45406C39.0142 1.92232 35.5804 0.5 32 0.5L14 0.5ZM12.5 23C12.5 20.2152 13.6062 17.5445 15.5754 15.5754C17.5445 13.6062 20.2152 12.5 23 12.5C25.7848 12.5 28.4555 13.6062 30.4246 15.5754C32.3938 17.5445 33.5 20.2152 33.5 23C33.5 25.7848 32.3938 28.4555 30.4246 30.4246C28.4555 32.3938 25.7848 33.5 23 33.5C20.2152 33.5 17.5445 32.3938 15.5754 30.4246C13.6062 28.4555 12.5 25.7848 12.5 23ZM33.5 12.5H36.5V9.5H33.5V12.5Z" fill="white"/>
</g>
<defs>
<clipPath id="clip0_43_39">
<rect width="45" height="45" fill="white" transform="translate(0.5)"/>
</clipPath>
</defs>
</svg>
